<svg width="1000" height="1000" viewBox="0 0 1000 1000" fill="none" xmlns="http://www.w3.org/2000/svg">
<path d="M100 833.464L293.65 602.745L223.733 534.927L324.429 399.125L127.615 162H330.69L420.063 273.732L494.151 238.928L578.621 281.503L672.274 162H873.617L667.104 413.619L775.568 497.736L699.865 598.402L900 833.472H690.457L581.61 700.948L494.143 801.564L417.016 701.597L308.361 833.472H100V833.464Z" fill="black"/>
<path d="M831.657 508.817C831.332 493.816 831.365 479.505 826.911 465.161C821.924 449.328 816.787 433.944 808.295 419.908C797.564 402.577 786.358 386.527 770.023 374.596C751.233 359.295 704.744 333.128 665.456 333.944C665.414 333.894 665.414 333.827 665.414 333.785C647.306 333.345 611.149 333.203 560.847 374.463C552.18 382.55 545.062 391.278 536.62 399.299C533.939 401.986 512.776 421.314 499.996 434.235C514.308 448.396 524.473 458.638 535.338 469.829C547.859 482.75 561.271 494.174 574.101 506.795C589.42 488.175 624.736 447.897 633.703 442.921C633.986 442.672 634.327 442.447 634.569 442.197C634.927 442.089 635.318 442.023 635.659 441.931C644.75 437.264 654.891 434.593 665.647 434.593C689.991 434.593 711.329 447.947 723.501 468.057C726.648 472.341 728.821 477.4 730.278 482.85C732.85 490.338 734.249 498.367 734.249 506.787C734.249 546.666 703.545 578.965 665.647 578.965C662.217 578.965 649.138 578.623 645.841 578.091C648.913 582.692 653.209 592.061 655.382 596.861C660.436 607.927 662.842 617.936 664.748 630.042C666.88 643.646 665.822 648.38 665.822 663.173C665.822 665.428 665.256 673.781 665.389 676.078C682.215 674.613 710.288 671.868 726.007 663.448C746.029 654.994 764.728 645.518 779.24 628.104C794.683 617.187 805.565 598.259 814.506 581.477C824.538 559.187 832.314 533.753 831.657 508.817V508.817Z" fill="url(#paint0_linear)"/>
<path d="M659.676 342.023C660.25 342.023 660.816 342.023 661.366 342.032L661.624 342.339L665.62 342.256L667.26 342.24C701.644 342.24 744.97 364.929 764.751 381.045L764.926 381.186L765.101 381.311C779.487 391.828 789.935 406.097 801.158 424.218C809.109 437.356 813.921 451.667 818.95 467.633C822.746 479.847 822.987 492.485 823.254 505.856L823.32 509.043C823.853 529.352 818.375 552.499 807.036 577.834C798.536 593.775 788.304 611.539 774.442 621.34L773.551 621.964L772.852 622.813C760.189 638.005 743.679 646.991 722.782 655.819L722.424 655.969L722.083 656.143C710.144 662.542 688.64 665.47 674.029 666.951C674.104 665.337 674.162 663.956 674.162 663.207C674.162 659.197 674.245 655.935 674.32 653.032C674.503 645.094 674.645 639.362 672.988 628.77C671.315 618.129 668.933 606.472 662.989 593.451C662.09 591.471 661.108 589.349 660.1 587.219C662.773 587.286 664.912 587.319 665.662 587.319C708.08 587.319 742.589 551.209 742.589 506.821C742.589 497.794 741.132 488.924 738.259 480.454C736.469 473.89 733.847 468.182 730.45 463.473C716.222 440.193 692.028 426.298 665.662 426.298C654.256 426.298 643.2 428.919 632.784 434.094C632.601 434.136 632.41 434.194 632.235 434.244L630.129 434.868L628.905 436.141C617.632 443.272 586.478 479.331 573.491 494.649C570.002 491.337 566.497 488.092 563.067 484.922C555.824 478.216 548.331 471.277 541.338 464.055C532.146 454.587 523.297 445.635 511.841 434.253C519.9 426.39 529.391 417.521 535.585 411.746C539.14 408.435 541.704 406.022 542.387 405.34C546.616 401.321 550.521 397.145 554.292 393.101C558.322 388.774 562.143 384.689 566.364 380.737C608.707 346.042 639.894 342.023 659.676 342.023V342.023ZM659.676 333.703C640.202 333.703 606.301 337.173 560.853 374.455C552.186 382.543 545.068 391.27 536.626 399.291C533.945 401.979 512.782 421.306 500.002 434.228C514.313 448.389 524.479 458.631 535.344 469.821C547.865 482.743 561.277 494.166 574.107 506.788C589.426 488.167 624.742 447.889 633.709 442.914C633.992 442.664 634.333 442.44 634.574 442.19C634.932 442.082 635.324 442.015 635.665 441.924C644.756 437.256 654.897 434.585 665.653 434.585C689.997 434.585 711.335 447.939 723.507 468.049C726.654 472.334 728.827 477.393 730.284 482.842C732.856 490.331 734.255 498.36 734.255 506.78C734.255 546.658 703.551 578.957 665.653 578.957C662.223 578.957 649.144 578.616 645.847 578.084C648.919 582.685 653.215 592.053 655.388 596.854C660.442 607.92 662.848 617.929 664.754 630.035C666.885 643.638 665.828 648.372 665.828 663.166C665.828 665.42 665.262 673.774 665.395 676.07C682.221 674.606 710.294 671.86 726.013 663.44C746.035 654.987 764.734 645.51 779.246 628.096C794.689 617.18 805.571 598.252 814.512 581.47C824.528 559.163 832.304 533.737 831.646 508.801H831.654C831.329 493.8 831.363 479.489 826.909 465.145C821.922 449.312 816.785 433.928 808.293 419.892C797.562 402.561 786.355 386.511 770.021 374.58C751.522 359.512 706.165 333.911 667.268 333.911C666.669 333.911 666.053 333.919 665.453 333.928C665.412 333.878 665.412 333.811 665.412 333.77C663.672 333.745 661.757 333.703 659.676 333.703V333.703Z" fill="url(#paint1_linear)"/>
<path d="M161.99 496.721C161.882 511.722 161.44 526.033 165.486 540.502C170.007 556.468 174.694 571.994 182.787 586.271C193.019 603.902 203.75 620.267 219.735 632.664C238.076 648.498 283.791 675.996 323.087 676.312C323.129 676.362 323.12 676.429 323.12 676.47C341.211 677.427 377.352 678.617 428.812 638.821C437.703 630.992 445.08 622.464 453.747 614.693C456.502 612.089 478.215 595.39 491.369 582.843C477.474 568.275 467.608 557.741 457.068 546.251C444.93 532.972 431.842 521.166 419.387 508.178C403.544 526.358 367.079 563.582 357.971 568.3C357.679 568.541 357.33 568.749 357.08 568.998C356.722 569.09 356.33 569.148 355.989 569.231C346.773 573.624 336.558 576.004 325.801 575.696C301.466 574.997 280.527 561.028 268.93 540.577C265.908 536.209 263.893 531.083 262.578 525.592C260.23 518.029 259.056 509.958 259.297 501.547C260.455 461.685 292.066 430.284 329.947 431.366C333.377 431.474 349.928 432.24 353.217 432.88C350.27 428.196 342.76 418.644 340.729 413.785C319.391 372.035 318.392 337.623 318.325 335.326C301.474 336.3 292.208 338.172 272.044 345.186C251.78 353.056 232.823 362.001 217.812 378.982C202.052 389.449 190.638 408.061 181.213 424.577C170.557 446.592 162.048 471.785 161.998 496.729H161.99V496.721Z" fill="url(#paint2_linear)"/>
<path d="M310.65 344.245C312.165 358.198 317.102 385.738 333.187 417.313C333.978 419.119 335.16 421.157 336.542 423.32C332.937 423.146 330.256 423.046 330.181 423.046C329.465 423.029 328.749 423.013 328.033 423.013C286.09 423.013 252.239 457.4 250.973 501.297C250.707 510.308 251.914 519.219 254.536 527.78C256.143 534.403 258.608 540.186 261.854 544.97C275.417 568.657 299.202 583.234 325.552 583.991C326.252 584.008 326.951 584.016 327.65 584.016C338.332 584.016 348.755 581.712 358.646 577.144C358.796 577.111 358.946 577.077 359.087 577.036L361.327 576.487L362.592 575.222C373.49 568.815 403.528 538.006 419.655 520.334C423.06 523.745 426.473 527.098 429.82 530.384C436.864 537.29 444.148 544.429 450.934 551.851C459.933 561.677 468.525 570.862 479.498 582.419C471.414 589.583 461.89 597.287 455.662 602.321C451.25 605.898 449.077 607.654 448.203 608.486C443.865 612.388 439.836 616.448 435.948 620.384C431.785 624.586 427.855 628.563 423.518 632.39C392.081 656.651 362.484 668.449 333.054 668.449C330.981 668.449 329.057 668.4 327.276 668.325L327.018 668.017L323.163 667.984C285.207 667.676 240.766 639.803 225.189 626.358L225.023 626.216L224.848 626.075C210.778 615.159 200.737 600.59 190.039 582.153C182.471 568.799 178.067 554.355 173.513 538.247C170.508 527.514 170.216 516.54 170.258 505.033H170.325L170.341 496.729C170.383 476.42 176.527 453.439 188.599 428.437C197.557 412.745 208.297 395.281 222.425 385.896L223.333 385.289L224.057 384.473C237.153 369.655 253.92 361.144 274.784 353.032C290.394 347.607 299.011 345.394 310.65 344.245V344.245ZM318.318 335.326C301.467 336.3 292.201 338.172 272.036 345.186C251.772 353.056 232.815 362.001 217.805 378.982C202.044 389.449 190.63 408.061 181.206 424.577C170.549 446.592 162.041 471.785 161.991 496.729H161.974C161.866 511.731 161.425 526.041 165.471 540.51C169.992 556.477 174.679 572.002 182.771 586.279C193.003 603.91 203.735 620.276 219.719 632.673C238.06 648.506 283.775 676.004 323.071 676.32C323.113 676.37 323.105 676.437 323.105 676.479C325.969 676.637 329.282 676.786 333.029 676.786C353.001 676.786 385.471 672.327 428.796 638.821C437.688 630.992 445.064 622.464 453.731 614.693C456.487 612.089 478.199 595.39 491.354 582.843C477.458 568.275 467.593 557.741 457.053 546.251C444.914 532.972 431.827 521.166 419.372 508.178C403.528 526.358 367.063 563.582 357.955 568.3C357.664 568.541 357.314 568.749 357.064 568.998C356.706 569.09 356.315 569.148 355.974 569.231C347.29 573.375 337.724 575.721 327.65 575.721C327.034 575.721 326.41 575.713 325.786 575.696C301.45 574.997 280.512 561.028 268.914 540.577C265.892 536.209 263.877 531.083 262.562 525.592C260.214 518.029 259.04 509.958 259.282 501.547C260.414 462.359 290.993 431.341 328.025 431.341C328.666 431.341 329.291 431.349 329.932 431.366C333.362 431.474 349.913 432.24 353.201 432.88C350.254 428.196 342.744 418.644 340.713 413.785C319.392 372.035 318.393 337.614 318.318 335.326V335.326Z" fill="url(#paint3_linear)"/>
<path d="M652.525 614.385C643.567 576.769 628.556 565.928 627.957 565.604C626.658 565.279 592.216 532.889 573.35 515.084C571.902 515.067 447.478 392.968 433.508 370.803C433.3 370.595 433.1 370.379 432.909 370.154C432.484 369.339 432.093 368.532 431.693 367.667C425.724 356.909 422.26 344.47 422.26 331.116C422.26 309.292 431.452 289.773 445.954 276.453C447.253 274.88 452.215 270.828 453.414 270.42C464.329 262.899 477.316 258.489 491.32 258.489C529.45 258.489 560.363 290.988 560.363 331.116C560.363 333.304 561.112 358.856 560.895 360.936C571.044 353.489 585.972 342.864 606.652 334.511C627.224 326.191 635.383 324.535 656.655 323.279C656.197 313.286 654.74 293.609 651.21 283.658C644.799 266.61 638.638 250.202 627.715 235.667C613.654 211.647 592.724 194.457 569.338 181.311C555.617 174.672 542.654 167.026 527.744 165.212C510.46 163.273 493.484 160.91 476.084 163.223C458.001 163.548 440.685 166.892 424.85 176.394C416.574 179.914 408.457 183.666 401.08 188.966C386.236 199.499 372.216 208.61 361.618 224.277C345.208 248.147 328.266 278.033 326.801 308.111C326.218 314.842 326.085 321.54 326.068 328.312C327.334 334.128 326.834 340.044 327.825 345.926C327.858 346.217 327.891 346.459 327.925 346.758C329.498 357.616 331.455 391.928 368.445 441.716C375.305 448.897 393.063 467.783 400.656 476.528C406.783 483.6 413.793 490.356 420.329 497.994C420.229 498.185 488.93 571.187 490.262 572.11C490.346 572.01 490.454 571.944 490.504 571.836L543.803 625.168C555.084 638.464 558.897 656.235 559.588 673.558C559.88 679.59 558.823 685.323 557.033 690.914C549.307 721.923 522.557 744.829 490.687 744.829C458.784 744.829 432.034 721.898 424.375 690.831C424.067 690.049 423.759 689.317 423.501 688.543C421.419 681.571 420.887 670.555 423.451 658.282C423.617 657.467 424.134 655.329 425.274 651.851C414.692 659.93 408.174 663.649 396.393 669.306C381.657 676.087 369.402 680.572 356.847 683.867C346.898 686.471 336.641 687.669 326.052 686.646C327.533 731.999 340.038 741.168 346.832 752.866C366.455 786.763 406.983 815.509 424.375 823.197C453.139 835.186 483.269 841.401 514.231 836.442C539.732 832.657 564.609 822.664 585.714 807.08C611.797 789.999 630.754 764.356 643.326 735.144C651.568 718.895 655.764 700.807 656.005 682.527C656.738 672.402 656.621 668.133 656.655 662.309C656.771 644.188 655.597 627.398 652.525 614.385Z" fill="url(#paint4_linear)"/>
<path d="M491.371 170.592C501.536 170.592 511.61 171.749 522.283 172.972L526.729 173.479C537.677 174.81 547.876 179.919 558.674 185.327C560.93 186.45 563.186 187.582 565.467 188.697C590.652 202.899 608.66 219.64 620.515 239.874L620.756 240.29L621.048 240.673C631.247 254.227 637.141 269.918 643.352 286.434C645.575 292.682 647.04 304.489 647.847 315.546C630.839 316.944 621.764 319.415 603.523 326.795C589.453 332.478 577.856 339.234 569.006 345.066C568.956 343.078 568.906 340.848 568.839 338.344C568.747 334.649 568.673 331.779 568.673 331.113C568.673 286.484 533.964 250.166 491.304 250.166C476.277 250.166 461.682 254.709 449.053 263.304C445.872 265.068 441.784 268.737 440.078 270.534C423.452 285.926 413.919 307.983 413.919 331.113C413.919 345.216 417.491 359.161 424.259 371.45C424.676 372.323 425.075 373.155 425.508 373.987L425.949 374.836L426.574 375.56C426.69 375.693 426.807 375.826 426.924 375.959C435.74 389.18 472.555 427.22 502.202 457.089C546.036 501.278 561.363 515.996 567.815 520.905L567.624 521.105C608.735 559.927 619.374 569.678 623.329 572.424L623.287 572.482C623.421 572.582 636.333 582.391 644.401 616.279C647.107 627.744 648.43 643.203 648.33 662.24L648.322 664.761C648.314 669.478 648.305 673.564 647.706 681.909L647.681 682.15V682.391C647.456 699.689 643.368 716.621 635.9 731.364L635.776 731.597L635.667 731.838C622.73 761.916 604.38 784.888 581.144 800.097L580.953 800.23L580.769 800.371C561.063 814.923 537.627 824.542 512.917 828.219C506.24 829.284 499.38 829.825 492.52 829.825C471.931 829.825 450.701 825.141 427.748 815.572C411.871 808.558 372.683 780.886 354.034 748.678C352.702 746.39 351.279 744.327 349.772 742.139C343.994 733.768 336.934 723.551 334.844 695.313C342.695 695.204 350.596 694.098 358.971 691.901C372.225 688.415 384.847 683.772 400.007 676.8C405.144 674.329 409.407 672.182 413.536 669.811C413.087 677.64 413.769 685.029 415.609 691.169C415.859 691.926 416.15 692.65 416.45 693.399C425.392 728.602 455.846 753.154 490.696 753.154C525.588 753.154 556.126 728.51 565.059 693.191C567.29 686.119 568.223 679.571 567.915 673.231C566.991 650.25 561.18 632.778 550.157 619.782L549.94 619.532L549.699 619.291L496.408 565.959L487.708 557.264L487.633 557.431C470.049 538.943 430.562 496.926 426.932 492.924L426.649 492.6C423.077 488.423 419.406 484.538 415.851 480.785C412.704 477.449 409.723 474.304 406.934 471.084C399.033 461.99 381.034 442.878 374.815 436.355C342.112 392.183 338.208 361.574 336.534 348.478C336.393 347.379 336.268 346.406 336.185 345.848L336.085 345.016L336.06 344.783L336.026 344.55C335.652 342.329 335.527 339.941 335.394 337.42C335.227 334.242 335.061 330.955 334.386 327.486C334.403 321.853 334.52 315.297 335.102 308.524C336.551 278.63 354.834 248.818 368.496 228.942C377.346 215.871 388.818 207.783 402.105 198.423L405.918 195.727C412.296 191.151 419.397 187.757 428.097 184.054L428.622 183.83L429.122 183.53C442.184 175.701 457.153 171.89 476.227 171.549L476.701 171.541L477.176 171.474C481.647 170.883 486.301 170.592 491.371 170.592V170.592ZM491.371 162.272C486.301 162.272 481.205 162.547 476.077 163.229C457.994 163.553 440.677 166.898 424.842 176.4C416.567 179.919 408.449 183.671 401.073 188.971C386.229 199.505 372.209 208.615 361.61 224.282C345.201 248.153 328.259 278.039 326.794 308.116C326.211 314.847 326.078 321.545 326.061 328.318C327.326 334.134 326.827 340.049 327.818 345.932C327.851 346.223 327.884 346.464 327.917 346.764C329.491 357.621 331.447 391.934 368.437 441.722C375.298 448.902 393.056 467.789 400.649 476.533C406.776 483.606 413.786 490.362 420.321 498C420.222 498.191 488.923 571.192 490.255 572.116C490.339 572.016 490.447 571.949 490.497 571.841L543.796 625.174C555.077 638.469 558.89 656.241 559.581 673.564C559.873 679.596 558.815 685.328 557.025 690.92C549.299 721.929 522.55 744.834 490.68 744.834C458.777 744.834 432.027 721.904 424.368 690.836C424.06 690.054 423.752 689.322 423.493 688.548C421.412 681.576 420.879 670.56 423.444 658.288C423.61 657.472 424.126 655.334 425.267 651.856C414.685 659.935 408.166 663.654 396.386 669.312C381.65 676.093 369.395 680.578 356.84 683.872C349.28 685.844 341.555 687.017 333.629 687.017C331.123 687.017 328.592 686.893 326.036 686.651C327.518 732.005 340.023 741.173 346.816 752.872C366.439 786.768 406.967 815.514 424.359 823.202C446.355 832.379 469.15 838.162 492.503 838.162C499.688 838.162 506.931 837.621 514.216 836.448C539.717 832.662 564.593 822.67 585.698 807.086C611.782 790.005 630.739 764.362 643.31 735.15C651.552 718.9 655.748 700.812 655.99 682.533C656.722 672.407 656.606 668.139 656.639 662.315C656.739 644.193 655.565 627.412 652.493 614.391C643.535 576.775 628.524 565.934 627.925 565.609C626.626 565.285 592.184 532.894 573.318 515.089C571.869 515.073 447.446 392.974 433.476 370.809C433.268 370.601 433.068 370.385 432.876 370.16C432.452 369.345 432.06 368.538 431.661 367.672C425.691 356.914 422.228 344.476 422.228 331.122C422.228 309.298 431.419 289.779 445.922 276.458C447.221 274.886 452.183 270.834 453.382 270.426C464.297 262.905 477.284 258.495 491.288 258.495C529.418 258.495 560.33 290.993 560.33 331.122C560.33 333.31 561.08 358.861 560.863 360.941C571.012 353.495 585.939 342.87 606.62 334.516C627.192 326.196 635.351 324.54 656.622 323.284C656.165 313.292 654.708 293.614 651.178 283.663C644.767 266.615 638.606 250.208 627.683 235.673C613.622 211.652 592.691 194.463 569.305 181.317C555.585 174.677 542.622 167.031 527.711 165.217C515.548 163.853 503.501 162.272 491.371 162.272V162.272Z" fill="url(#paint5_linear)"/>
<defs>
<linearGradient id="paint0_linear" x1="500.001" y1="504.897" x2="831.693" y2="504.897" gradientUnits="userSpaceOnUse">
<stop stop-color="#545557"/>
<stop offset="0.1065" stop-color="#626264"/>
<stop offset="0.3054" stop-color="#858686"/>
<stop offset="0.3973" stop-color="#989898"/>
<stop offset="0.5426" stop-color="#9B9B9B"/>
<stop offset="0.6567" stop-color="#A5A5A5"/>
<stop offset="0.7602" stop-color="#B6B6B6"/>
<stop offset="0.8574" stop-color="#CDCDCD"/>
<stop offset="0.9495" stop-color="#EBEBEB"/>
<stop offset="1" stop-color="white"/>
</linearGradient>
<linearGradient id="paint1_linear" x1="499.999" y1="504.898" x2="831.691" y2="504.898" gradientUnits="userSpaceOnUse">
<stop stop-color="#545557"/>
<stop offset="0.0291" stop-color="#626264"/>
<stop offset="0.0837" stop-color="#868687"/>
<stop offset="0.1572" stop-color="#BFBFC0"/>
<stop offset="0.2305" stop-color="white"/>
<stop offset="0.2411" stop-color="#EDEDED"/>
<stop offset="0.2922" stop-color="#9B9C9D"/>
<stop offset="0.3285" stop-color="#68696A"/>
<stop offset="0.3462" stop-color="#545557"/>
<stop offset="0.3814" stop-color="#58585A"/>
<stop offset="0.4121" stop-color="#626364"/>
<stop offset="0.4411" stop-color="#747576"/>
<stop offset="0.469" stop-color="#8D8E8E"/>
<stop offset="0.4961" stop-color="#AEAEAE"/>
<stop offset="0.5224" stop-color="#D5D5D4"/>
<stop offset="0.5231" stop-color="#D6D6D5"/>
<stop offset="0.6115" stop-color="#D3D3D3"/>
<stop offset="0.6669" stop-color="#B8B8B8"/>
<stop offset="0.7224" stop-color="#989898"/>
<stop offset="0.7544" stop-color="#9B9B9B"/>
<stop offset="0.7796" stop-color="#A5A5A5"/>
<stop offset="0.8024" stop-color="#B6B6B6"/>
<stop offset="0.8239" stop-color="#CDCDCD"/>
<stop offset="0.8442" stop-color="#EBEBEB"/>
<stop offset="0.8553" stop-color="white"/>
<stop offset="0.8644" stop-color="#D8D8D9"/>
<stop offset="0.8745" stop-color="#B5B5B6"/>
<stop offset="0.8855" stop-color="#979798"/>
<stop offset="0.8976" stop-color="#7E7F80"/>
<stop offset="0.9112" stop-color="#6B6C6E"/>
<stop offset="0.927" stop-color="#5E5F60"/>
<stop offset="0.9472" stop-color="#565759"/>
<stop offset="0.9867" stop-color="#545557"/>
</linearGradient>
<linearGradient id="paint2_linear" x1="493.457" y1="510.895" x2="161.841" y2="501.335" gradientUnits="userSpaceOnUse">
<stop stop-color="#545557"/>
<stop offset="0.1065" stop-color="#626264"/>
<stop offset="0.3054" stop-color="#858686"/>
<stop offset="0.3973" stop-color="#989898"/>
<stop offset="0.5426" stop-color="#9B9B9B"/>
<stop offset="0.6567" stop-color="#A5A5A5"/>
<stop offset="0.7602" stop-color="#B6B6B6"/>
<stop offset="0.8574" stop-color="#CDCDCD"/>
<stop offset="0.9495" stop-color="#EBEBEB"/>
<stop offset="1" stop-color="white"/>
</linearGradient>
<linearGradient id="paint3_linear" x1="493.447" y1="510.908" x2="161.836" y2="501.348" gradientUnits="userSpaceOnUse">
<stop stop-color="#545557"/>
<stop offset="0.0291" stop-color="#626264"/>
<stop offset="0.0837" stop-color="#868687"/>
<stop offset="0.1572" stop-color="#BFBFC0"/>
<stop offset="0.2305" stop-color="white"/>
<stop offset="0.2411" stop-color="#EDEDED"/>
<stop offset="0.2922" stop-color="#9B9C9D"/>
<stop offset="0.3285" stop-color="#68696A"/>
<stop offset="0.3462" stop-color="#545557"/>
<stop offset="0.3814" stop-color="#58585A"/>
<stop offset="0.4121" stop-color="#626364"/>
<stop offset="0.4411" stop-color="#747576"/>
<stop offset="0.469" stop-color="#8D8E8E"/>
<stop offset="0.4961" stop-color="#AEAEAE"/>
<stop offset="0.5224" stop-color="#D5D5D4"/>
<stop offset="0.5231" stop-color="#D6D6D5"/>
<stop offset="0.6115" stop-color="#D3D3D3"/>
<stop offset="0.6669" stop-color="#B8B8B8"/>
<stop offset="0.7224" stop-color="#989898"/>
<stop offset="0.7544" stop-color="#9B9B9B"/>
<stop offset="0.7796" stop-color="#A5A5A5"/>
<stop offset="0.8024" stop-color="#B6B6B6"/>
<stop offset="0.8239" stop-color="#CDCDCD"/>
<stop offset="0.8442" stop-color="#EBEBEB"/>
<stop offset="0.8553" stop-color="white"/>
<stop offset="0.8644" stop-color="#D8D8D9"/>
<stop offset="0.8745" stop-color="#B5B5B6"/>
<stop offset="0.8855" stop-color="#979798"/>
<stop offset="0.8976" stop-color="#7E7F80"/>
<stop offset="0.9112" stop-color="#6B6C6E"/>
<stop offset="0.927" stop-color="#5E5F60"/>
<stop offset="0.9472" stop-color="#565759"/>
<stop offset="0.9867" stop-color="#545557"/>
</linearGradient>
<linearGradient id="paint4_linear" x1="334.036" y1="771.572" x2="648.319" y2="226.871" gradientUnits="userSpaceOnUse">
<stop stop-color="#BA8738"/>
<stop offset="0.4877" stop-color="#FEFFC6"/>
<stop offset="0.9754" stop-color="#BA8738"/>
</linearGradient>
<linearGradient id="paint5_linear" x1="326.061" y1="500.212" x2="656.68" y2="500.212" gradientUnits="userSpaceOnUse">
<stop stop-color="#BA8738"/>
<stop offset="0.2266" stop-color="#FEFFC6"/>
<stop offset="0.468" stop-color="#BA8738"/>
<stop offset="0.6749" stop-color="#FEFFC6"/>
<stop offset="0.9754" stop-color="#BA8738"/>
</linearGradient>
</defs>
</svg>
